Coordinates
version=1
nRows=12
nColumns=33
inDegrees=yes

Units are S.I. units (second, meters, Newtons, ...)
Angles are in degrees.

endheader
time	ground_thorax_rot_x	ground_thorax_rot_y	ground_thorax_rot_z	ground_thorax_tx	ground_thorax_ty	ground_thorax_tz	clav_prot_r	clav_elev_r	scapula_abduction_r	scapula_elevation_r	scapula_upward_rot_r	scapula_winging_r	shoulder_elv_r	plane_of_elev_r	axial_rot_r	elbow_flexion_r	pro_sup_r	wrist_flex_r	wrist_dev_r	clav_prot_l	clav_elev_l	scapula_abduction_l	scapula_elevation_l	scapula_upward_rot_l	scapula_winging_l	shoulder_elv_l	plane_of_elev_l	axial_rot_l	elbow_flexion_l	pro_sup_l	wrist_flex_l	wrist_dev_l
      5.65000000	     25.26133680	     31.42003333	     44.86819947	    -48.99142780	    781.94209645	      5.33236185	     13.15004175	     36.92557785	     36.02311271	     40.47259602	    -32.74070196	  -1885.24851589	  -2282.23767956	    149.97449243	   -121.38570821	   1449.09932968	     27.37044223	     16.62597131	     10.04010709	      9.14614204	    -45.00000000	    -40.09167811	     45.00000000	    -45.00000000	   2248.60048533	  -4782.30931778	    138.28945948	   -179.99999979	    364.39089231	     50.46057944	     10.22362402	    -21.94816112
      5.66000000	     25.48318280	     31.30587192	     44.67676793	    -49.15018910	    781.89808730	      5.42489361	     13.11222849	     36.74567698	     36.15189401	     40.51214804	    -32.59959270	  -1885.05032761	  -2282.15389865	    150.09794890	   -121.54346140	   1449.08242615	     27.23673249	     16.82846198	     10.20038089	      8.02261862	    -45.00000000	    -39.58721480	     45.00000000	    -45.00000000	   2248.36248103	  -4782.25717887	    138.33575166	   -179.99999979	    364.22454491	     50.38025954	     10.12416527	    -22.19439882
      5.67000000	     25.48812954	     31.25889785	     44.48995294	    -49.39332274	    781.79514674	      5.51411243	     13.24691185	     36.96545138	     36.20517028	     40.38126727	    -32.56268361	  -1885.32583812	  -2282.23641349	    149.94250244	   -121.60570128	   1449.14699291	     27.14298320	     16.62678173	     10.04739300	      8.31862813	    -45.00000000	    -39.87143829	     45.00000000	    -45.00000000	   2248.50853301	  -4782.29976904	    138.15671629	   -179.99999979	    364.37701004	     50.41663721	     10.24155927	    -21.96133702
      5.68000000	     25.50272654	     31.25175283	     44.57963918	    -49.70946993	    781.63629422	      5.59558013	     13.12015920	     36.71370573	     36.19190248	     40.44245759	    -32.42141413	  -1885.06960182	  -2282.15679546	    150.14540523	   -121.42651789	   1449.11005625	     27.12688479	     16.90773807	     10.28369989	      8.19236549	    -45.00000000	    -39.54677475	     45.00000000	    -45.00000000	   2248.30022448	  -4782.26085321	    138.40135637	   -179.99999979	    364.21491431	     50.39216445	     10.12030139	    -22.22077308
      5.69000000	     25.47233749	     31.21623570	     44.39843207	    -50.09318122	    781.42563735	      5.66716524	     13.15678585	     36.99747483	     36.15233030	     40.33953906	    -32.44952014	  -1885.37983529	  -2282.31086857	    149.87575608	   -121.52129734	   1449.16272716	     27.06631319	     16.58845753	      9.99992517	      8.16461343	    -45.00000000	    -39.90565933	     45.00000000	    -45.00000000	   2248.58673645	  -4782.33732364	    138.09985593	   -179.99999979	    364.36613244	     50.47057996	     10.25665710	    -21.99299730
      5.70000000	     25.48684860	     31.15980049	     44.50497776	    -50.54266815	    781.16629798	      5.72728749	     13.12582206	     36.71503172	     36.20156856	     40.35930250	    -32.37166200	  -1885.08782803	  -2282.17215455	    150.13870641	   -121.38041555	   1449.19050322	     27.08193043	     16.95700942	     10.33180537	      8.21158737	    -45.00000000	    -39.54144824	     45.00000000	    -45.00000000	   2248.30515683	  -4782.26298211	    138.47920660	   -179.99999979	    364.19082109	     50.47496869	     10.14220429	    -22.23356335
      5.71000000	     25.49456355	     31.18340555	     44.32480194	    -51.05322022	    780.86443637	      5.77360411	     13.08482587	     36.97270120	     36.12049693	     40.38735146	    -32.42967691	  -1885.31601423	  -2282.36970862	    149.91795296	   -121.50847345	   1449.16128799	     27.05638313	     16.64292315	     10.06688742	      8.12684193	    -45.00000000	    -39.80127520	     45.00000000	    -45.00000000	   2248.62263143	  -4782.35983070	    138.10905599	   -179.99999979	    364.29340715	     50.54803908	     10.25893911	    -22.06321655
      5.72000000	     25.50263161	     31.15542897	     44.46347269	    -51.61777429	    780.52772434	      5.80346323	     13.09471709	     36.69830009	     36.15490562	     40.39240735	    -32.37914947	  -1885.07541415	  -2282.13738097	    150.18121256	   -121.42547586	   1449.24825521	     27.09279479	     17.04782842	     10.43633629	      8.20613606	    -45.00000000	    -39.37303025	     45.00000000	    -45.00000000	   2248.31750726	  -4782.27628833	    138.54183404	   -179.99999979	    364.20244340	     50.53946043	     10.16116196	    -22.27516185
      5.73000000	     25.48359988	     31.13679832	     44.30911514	    -52.23314207	    780.16268166	      5.81457686	     13.06129320	     36.93610467	     36.16860147	     40.41824333	    -32.56882830	  -1885.23385915	  -2282.31478125	    150.04691222	   -121.57268624	   1449.27733583	     27.08988578	     16.78092221	     10.18034224	      8.15098596	    -45.00000000	    -39.74547513	     45.00000000	    -45.00000000	   2248.65784036	  -4782.31828289	    138.24086188	   -179.99999979	    364.32582745	     50.57655051	     10.24378306	    -22.14915861
      5.74000000	     25.50049126	     31.12737127	     44.37896579	    -52.89394316	    779.77682178	      5.80523007	     13.08506044	     36.78468396	     35.96372933	     40.49397242	    -32.44083593	  -1885.05947536	  -2282.27104426	    150.01500805	   -121.60631126	   1449.23842447	     27.14006007	     16.99372523	     10.39553376	      8.15741547	    -45.00000000	    -39.34235501	     45.00000000	    -45.00000000	   2248.45738215	  -4782.30505317	    138.45034539	   -179.99999979	    364.09812400	     50.58406154	     10.25448144	    -22.26548614
      5.75000000	     25.52150766	     31.09755836	     44.26711691	    -53.59386404	    779.37867427	      5.77522850	     13.03056588	     36.97688502	     36.10059832	     40.41164769	    -32.62637169	  -1885.28787072	  -2282.23454290	    149.96850620	   -121.78812606	   1449.32684657	     27.15241460	     16.78871693	     10.14372864	      8.09206219	    -45.00000000	    -39.69689496	     45.00000000	    -45.00000000	   2248.82140155	  -4782.39879510	    138.24263155	   -179.99999979	    364.26260471	     50.57206505	     10.31235006	    -22.18726200
      5.76000000	     25.54714867	     31.07888446	     44.35858382	    -54.33003950	    778.97351434	      5.72602991	     13.08505139	     36.81769444	     35.96508929	     40.57683813	    -32.63212168	  -1885.03347592	  -2282.20977071	    150.02177706	   -121.78920799	   1449.33079437	     27.23523803	     17.05509881	     10.42316554	      8.15708249	    -45.00000000	    -39.39057817	     45.00000000	    -45.00000000	   2248.60334383	  -4782.32219636	    138.55019833	   -179.99999979	    364.13777299	     50.51369000	     10.31079412	    -22.29452510
